<?xml version="1.0" standalone="no"?>
<!DOCTYPE svg PUBLIC "-//W3C//DTD SVG 20010904//EN"
 "http://www.w3.org/TR/2001/REC-SVG-20010904/DTD/svg10.dtd">
<svg version="1.0" xmlns="http://www.w3.org/2000/svg"
 width="1257.000000pt" height="1257.000000pt" viewBox="0 0 1257.000000 1257.000000"
 preserveAspectRatio="xMidYMid meet">
<metadata>
Created by potrace 1.11, written by Peter Selinger 2001-2013
</metadata>
<g transform="translate(0.000000,1257.000000) scale(0.100000,-0.100000)"
fill="#000000" stroke="none">
<path d="M4320 9485 c0 -5 23 -75 51 -155 28 -80 77 -219 109 -310 32 -91 81
-232 110 -315 29 -82 54 -152 56 -154 2 -2 135 -3 296 -1 755 6 848 2 1038
-41 25 -6 52 -12 61 -14 140 -29 384 -143 509 -238 255 -194 411 -449 478
-782 29 -141 34 -190 36 -365 3 -173 -13 -337 -45 -468 -11 -48 -22 -94 -24
-102 -2 -8 -15 -46 -29 -83 -173 -457 -568 -756 -1101 -833 -22 -3 -51 -8 -65
-10 -14 -3 -110 -7 -213 -9 -139 -3 -189 -1 -193 8 -2 7 -5 222 -6 479 l-3
468 -35 1 c-55 1 -687 1 -761 0 l-66 -1 1 -967 1 -967 355 3 c805 5 1177 10
1205 14 17 3 61 8 98 12 37 3 76 8 85 9 9 2 51 9 92 16 41 6 111 21 155 32 44
11 87 21 96 23 46 9 175 52 262 86 604 241 1055 691 1295 1294 36 90 95 280
107 345 3 14 11 59 19 100 24 118 31 173 41 320 6 83 7 353 1 405 -3 22 -8 72
-11 110 -6 60 -18 139 -40 260 -40 212 -157 513 -278 715 -119 200 -315 427
-487 566 -215 174 -466 312 -725 400 -128 44 -326 95 -420 108 -23 4 -50 8
-62 10 -12 3 -53 8 -90 11 -37 4 -77 9 -88 11 -89 18 -1815 26 -1815 9z"/>
<path d="M43 9482 c-18 -2 -33 -6 -32 -10 0 -4 96 -196 212 -427 l212 -420
1195 -1 c1293 -1 1235 1 1383 -54 122 -46 229 -155 296 -301 44 -97 61 -187
57 -309 -5 -122 -9 -151 -41 -243 -75 -214 -232 -348 -470 -403 -16 -4 -504
-8 -1083 -9 -579 -2 -1081 -6 -1115 -9 -167 -17 -214 -29 -324 -83 -101 -49
-167 -110 -218 -200 -26 -47 -59 -134 -69 -184 -3 -13 -7 -35 -10 -49 -17 -77
-20 -235 -20 -1165 l-1 -1020 427 -3 428 -2 1 47 c0 27 0 434 1 905 0 820 1
858 19 888 11 17 31 35 45 40 15 6 278 10 679 10 l653 0 22 -37 c13 -21 102
-173 200 -338 97 -165 195 -331 218 -369 23 -37 42 -70 42 -72 0 -3 17 -33 39
-67 21 -34 159 -267 306 -517 148 -250 273 -463 279 -472 10 -17 44 -18 483
-18 260 0 473 3 473 6 0 6 -15 32 -171 299 -64 110 -127 218 -139 240 -65 117
-605 1044 -621 1067 -10 15 -19 29 -19 31 0 3 -40 74 -90 158 l-89 153 102 36
c205 73 355 167 502 315 114 114 183 209 254 351 138 277 194 583 168 924 -3
47 -9 97 -12 112 -3 16 -7 40 -9 55 -15 111 -76 294 -139 417 -126 247 -326
436 -598 565 -94 45 -227 94 -283 105 -12 2 -41 9 -66 14 -44 10 -80 16 -190
32 -30 4 -100 8 -155 10 -170 3 -2698 5 -2732 2z"/>
<path d="M8685 7039 l0 -2439 35 -1 c19 0 259 -1 532 -2 l498 -2 0 1273 0
1273 21 -14 c11 -8 44 -37 72 -63 72 -67 154 -143 271 -249 55 -49 109 -99
120 -110 12 -11 66 -60 121 -110 55 -49 109 -99 121 -110 22 -21 176 -161 274
-250 30 -27 57 -52 60 -55 3 -4 37 -35 75 -70 39 -35 117 -107 175 -160 58
-53 137 -125 175 -160 39 -36 90 -83 114 -105 24 -22 49 -44 55 -50 7 -5 39
-35 71 -65 205 -188 262 -241 281 -257 12 -10 70 -63 129 -118 59 -55 113
-104 119 -110 95 -85 285 -259 386 -353 92 -85 141 -127 147 -127 3 0 6 1097
7 2437 l1 2438 -535 0 -535 0 0 -1275 c0 -701 -2 -1275 -5 -1275 -3 0 -28 22
-55 48 -28 26 -97 90 -154 142 -57 52 -119 109 -136 125 -18 17 -72 66 -121
110 -48 44 -106 97 -128 118 -23 22 -61 57 -86 79 -37 33 -201 183 -270 248
-9 8 -39 35 -66 60 -55 50 -262 240 -306 281 -16 15 -65 60 -109 100 -45 41
-100 91 -123 113 -22 21 -79 73 -125 115 -46 42 -96 87 -111 101 -93 86 -212
194 -230 210 -11 10 -51 47 -89 82 -94 87 -256 236 -315 289 -27 24 -63 58
-80 74 -18 17 -74 68 -126 115 -52 47 -98 90 -102 96 -4 6 -18 18 -30 26 l-23
15 0 -2438z"/>
<path d="M6485 4086 c-55 -20 -74 -36 -102 -84 l-28 -47 -2 -427 -1 -428 88 0
88 0 1 358 c0 500 -3 451 25 463 43 20 72 4 99 -54 63 -133 117 -249 117 -252
0 -2 24 -54 53 -117 30 -62 75 -161 102 -221 67 -150 110 -186 233 -192 76 -4
138 15 180 56 57 56 59 73 59 527 l0 412 -87 0 -87 0 0 -397 0 -396 -22 -19
c-55 -44 -78 -19 -169 182 -38 85 -82 182 -97 215 -16 33 -40 87 -56 120 -95
209 -108 232 -142 262 -20 18 -55 37 -77 43 -49 13 -133 11 -175 -4z"/>
<path d="M8190 4092 c-74 -23 -110 -62 -147 -162 -12 -30 -87 -221 -168 -425
-81 -203 -150 -378 -152 -387 -5 -16 4 -18 90 -18 l95 0 12 33 c7 17 18 46 26
62 7 17 61 154 120 305 165 426 160 414 195 418 14 2 31 -4 38 -12 7 -9 79
-192 161 -408 l147 -393 97 -3 c53 -1 96 0 96 3 0 4 -11 34 -24 68 -13 34 -68
177 -121 317 -169 448 -205 536 -228 558 -45 42 -169 65 -237 44z"/>
<path d="M9290 4093 c-55 -15 -97 -50 -126 -104 -17 -31 -19 -68 -20 -461 l-2
-428 88 0 87 0 0 402 c0 378 1 402 18 415 44 31 82 11 115 -61 11 -22 85 -185
164 -360 80 -176 156 -330 168 -344 81 -88 267 -92 351 -7 52 53 56 87 56 530
0 449 6 407 -59 407 -11 0 -42 0 -69 -1 l-50 -1 0 -396 c0 -349 -2 -398 -16
-414 -21 -24 -60 -22 -83 4 -11 11 -93 181 -181 376 -176 387 -195 417 -280
440 -39 10 -127 12 -161 3z"/>
<path d="M5000 4079 c-169 -6 -205 -14 -270 -54 -71 -45 -112 -115 -126 -210
-5 -38 -10 -639 -5 -702 1 -9 26 -13 89 -13 l87 0 -2 190 c-2 142 1 190 10
192 7 1 136 2 288 3 151 1 280 4 285 7 10 7 11 145 0 155 -3 3 -135 7 -294 7
l-287 1 1 77 c2 62 6 83 24 109 41 56 71 63 305 65 116 2 222 3 237 3 26 1 26
1 27 86 1 78 -1 85 -19 86 -96 4 -211 3 -350 -2z"/>
<path d="M5766 4082 c-15 -3 -16 -41 -15 -493 l2 -489 88 0 87 0 0 490 c0 270
-3 490 -7 491 -27 3 -141 3 -155 1z"/>
<path d="M11027 4084 c-1 -1 -33 -4 -72 -7 -133 -10 -236 -65 -302 -162 -28
-42 -59 -130 -68 -192 -37 -277 37 -491 200 -572 87 -43 133 -50 381 -51 l235
-1 -3 88 -3 88 -230 1 c-213 0 -233 2 -275 22 -53 24 -69 38 -92 73 -43 67
-60 224 -38 337 18 85 49 133 112 167 l53 30 235 1 235 1 0 88 0 88 -183 1
c-101 0 -184 0 -185 0z"/>
<path d="M12155 4079 c-110 -3 -215 -11 -232 -17 -62 -20 -120 -68 -147 -119
-24 -48 -27 -82 -29 -358 -1 -291 5 -333 58 -389 78 -83 135 -95 481 -96 l284
-1 0 88 0 88 -272 0 c-302 0 -327 5 -355 59 -32 61 -12 135 44 161 30 15 74
17 304 17 305 0 270 -12 272 89 1 79 20 74 -274 73 -236 -1 -268 1 -300 17
-21 10 -41 30 -48 47 -14 32 -8 91 11 121 25 41 52 45 323 47 143 1 268 3 278
3 15 1 17 12 17 89 l0 87 -108 0 c-59 0 -197 -3 -307 -6z"/>
</g>
</svg>
